<svg xmlns="http://www.w3.org/2000/svg" width="17.147" height="45.137" viewBox="0 0 17.147 45.137">
  <g id="Groupe_35" data-name="Groupe 35" transform="translate(0.5 0.68)">
    <path id="Tracé_22" data-name="Tracé 22" d="M552.073,598c-5.831,5.382-8.073,14.353-8.073,21.305s2.243,22.651,8.073,22.651,8.074-15.7,8.074-22.651S557.9,603.382,552.073,598Z" transform="translate(-544 -598)" fill="none" stroke="#c34687" stroke-width="1"/>
    <g id="Groupe_8" data-name="Groupe 8" transform="translate(3.066 9.717)">
      <path id="Tracé_23" data-name="Tracé 23" d="M558.388,640.773c-.05-.031-.1-.061-.148-.093-.186-.12-.367-.246-.557-.358a2.343,2.343,0,0,0-.818-.306,2.068,2.068,0,0,0-.6.008c-.182.024-.363.049-.545.065a1.106,1.106,0,0,1-1.076-.51,1.345,1.345,0,0,1-.254-.627,1.113,1.113,0,0,1,.312-.881,1.752,1.752,0,0,1,.631-.441.119.119,0,0,0,.081-.112c.015-.168.026-.337.054-.5a1.309,1.309,0,0,1,.37-.756,1.239,1.239,0,0,1,.721-.331,1,1,0,0,1,.723.2c.072.051.142.1.216.153.114.074.164.067.26-.027a.916.916,0,0,1,1.251-.064.615.615,0,0,1,.138.175.145.145,0,0,1-.053.211c-.059.045-.121.084-.178.131a1.58,1.58,0,0,0-.465.677c-.079.2-.14.411-.206.618-.027.084-.051.1-.132.065-.066-.029-.128-.065-.193-.1-.224-.1-.361-.045-.441.19a.236.236,0,0,0-.011.036c-.007.042-.033.049-.067.033q-.1-.049-.2-.1a1.084,1.084,0,0,0-.37-.125.578.578,0,0,0-.547.247.5.5,0,0,0-.119.244.372.372,0,0,0,.122.327,2.536,2.536,0,0,0,.363.294c.246.158.5.3.753.451a3.263,3.263,0,0,1,.7.525,1.014,1.014,0,0,1,.286.515c.009.051.011.1.016.154Z" transform="translate(-554.192 -633.731)" fill="#c34687"/>
      <path id="Tracé_24" data-name="Tracé 24" d="M556.142,653.063a.843.843,0,0,0,.729-.352c.029-.035.059-.068.089-.1a.2.2,0,0,1,.043-.04c.014-.008.036-.017.048-.012a.053.053,0,0,1,.019.045c-.008.057-.021.113-.031.169a2.213,2.213,0,0,0,.015.9,1.443,1.443,0,0,0,.18.4c.076.129.075.135-.056.208a2.5,2.5,0,0,1-.853.318,1.135,1.135,0,0,1-1.148-.48,2.211,2.211,0,0,1-.3-.582.32.32,0,0,0-.17-.188,4.511,4.511,0,0,1-.486-.276.993.993,0,0,1-.444-.709,1.287,1.287,0,0,1,.031-.476,2.731,2.731,0,0,1,.39-.865,1.2,1.2,0,0,1,.473-.391,3.271,3.271,0,0,1,.813-.279c.233-.051.468-.1.7-.127a1.692,1.692,0,0,1,.666.067,2.811,2.811,0,0,1,1.118.594,1.015,1.015,0,0,1,.166.2c.041.061.019.084-.054.094a.122.122,0,0,0-.079.051.244.244,0,0,1-.312.137,1.971,1.971,0,0,0-1.675.386,1.024,1.024,0,0,0-.4.674.931.931,0,0,0,.05.461.267.267,0,0,0,.245.157C555.987,653.059,556.065,653.059,556.142,653.063Z" transform="translate(-553.765 -643.543)" fill="#c34687"/>
      <path id="Tracé_25" data-name="Tracé 25" d="M566.7,653.037c-.012.049-.021.087-.031.123-.043.152-.1.3-.128.456a.917.917,0,0,0,.258.885.521.521,0,0,0,.593.129.628.628,0,0,0,.414-.8,1.492,1.492,0,0,0-.272-.552l-.137-.187c-.01-.013-.018-.029-.036-.057l.08.028c.165.065.332.127.5.2a1.3,1.3,0,0,1,.49.354,3.714,3.714,0,0,1,.755,1.3,2.529,2.529,0,0,1,.123.757,1.147,1.147,0,0,1-.012.15.322.322,0,0,1-.075.169.667.667,0,0,0-.089.152.825.825,0,0,1-.247.309,1.813,1.813,0,0,1-.411.245.668.668,0,0,1-.443.033l-.015,0a.588.588,0,0,0-.544.069c-.091.054-.184.105-.279.152a.688.688,0,0,1-.764-.081.654.654,0,0,1-.208-.31c-.04-.111-.076-.224-.105-.339a.327.327,0,0,0-.094-.165c-.068-.064-.134-.13-.2-.194a1.055,1.055,0,0,1-.331-.6,2.592,2.592,0,0,1-.025-.894,1.565,1.565,0,0,1,.959-1.22c.068-.031.14-.057.21-.083A.666.666,0,0,1,566.7,653.037Z" transform="translate(-561.769 -645.471)" fill="#c34687"/>
      <path id="Tracé_26" data-name="Tracé 26" d="M571.625,649.383a.93.93,0,0,1,.085-.06,1.588,1.588,0,0,1,.564-.171,2.006,2.006,0,0,1,1.333.33c.232.144.454.3.683.452a1,1,0,0,0,.434.179.527.527,0,0,0,.467-.2.306.306,0,0,0,.037-.249.942.942,0,0,0-.463-.669,1.882,1.882,0,0,0-.863-.294,5.255,5.255,0,0,0-1.054.027c-.041,0-.083.005-.124.007a.235.235,0,0,1-.041-.006.353.353,0,0,1,.062-.07,1.886,1.886,0,0,1,.238-.135,3.135,3.135,0,0,1,.9-.226,2.825,2.825,0,0,1,.853.022,1.5,1.5,0,0,1,.95.525,3.269,3.269,0,0,1,.427.716,1.163,1.163,0,0,1,.055.169.317.317,0,0,1-.06.3.506.506,0,0,0-.09.505,2.879,2.879,0,0,1,.095.484,1.124,1.124,0,0,1-.428.983,2.284,2.284,0,0,1-.56.351.448.448,0,0,1-.316.008,1.364,1.364,0,0,1-.6-.392,3.951,3.951,0,0,1-.651-.922,4.589,4.589,0,0,0-.48-.772,2.3,2.3,0,0,0-1.334-.844c-.041-.008-.08-.023-.12-.035Z" transform="translate(-566.018 -642.209)" fill="#c34687"/>
      <path id="Tracé_27" data-name="Tracé 27" d="M570.138,639.874a.949.949,0,0,1-.048-.132,1.5,1.5,0,0,1,0-.515,2.521,2.521,0,0,1,.307-.913,1.39,1.39,0,0,1,1.029-.714,2.225,2.225,0,0,1,.386-.018.4.4,0,0,1,.239.1.82.82,0,0,1,.327.544c.013.1.026.1.121.124.224.051.448.1.67.158a1.094,1.094,0,0,1,.39.2.875.875,0,0,1,.339.621,1.117,1.117,0,0,1-.334.961.692.692,0,0,1-.286.168c-.324.1-.649.2-.974.292a6.5,6.5,0,0,0-.919.322,2.571,2.571,0,0,0-.755.52c-.016.016-.035.03-.063.055a.66.66,0,0,1-.012-.086,1.053,1.053,0,0,1,.124-.453,2.375,2.375,0,0,1,.917-1c.16-.1.319-.2.469-.315a.546.546,0,0,0,.226-.462.156.156,0,0,0-.114-.164.39.39,0,0,0-.131-.024,1.957,1.957,0,0,0-.257.022.362.362,0,0,0-.233.135.047.047,0,0,1-.077.008.982.982,0,0,0-.112-.074.628.628,0,0,0-.641-.011,1.049,1.049,0,0,0-.51.534c-.016.038-.036.073-.054.11Z" transform="translate(-564.949 -634.871)" fill="#c34687"/>
      <path id="Tracé_28" data-name="Tracé 28" d="M570.152,630.03a.171.171,0,0,0,.041-.015.435.435,0,0,0,.216-.358c0-.115,0-.23,0-.345a.6.6,0,0,1,.022-.143.311.311,0,0,1,.352-.219.175.175,0,0,1,.164.207.384.384,0,0,1-.1.234.518.518,0,0,0-.118.245c-.012.059.006.076.067.066a.272.272,0,0,0,.178-.112c.058-.08.108-.165.163-.247a1.914,1.914,0,0,1,.145-.2.338.338,0,0,1,.358-.1.133.133,0,0,1,.108.125.289.289,0,0,1-.193.322c-.164.064-.329.125-.492.191a.456.456,0,0,0-.128.078.108.108,0,0,0-.034.086c0,.021.044.043.071.05a1.552,1.552,0,0,0,.16.021,1.284,1.284,0,0,1,.5.18.49.49,0,0,1,.113.1.113.113,0,0,1-.008.165.29.29,0,0,1-.376.065,2.515,2.515,0,0,1-.255-.2.74.74,0,0,0-.357-.2.506.506,0,0,0-.41.125c-.057.048-.049.109.023.133a1.916,1.916,0,0,0,.276.063.423.423,0,0,1,.289.148.2.2,0,0,1-.1.325.175.175,0,0,1-.16-.021c-.057-.04-.11-.087-.163-.132s-.1-.088-.145-.128a.215.215,0,0,0-.213-.036,1.522,1.522,0,0,0-.479.275,4.67,4.67,0,0,0-.761.805c-.067.087-.128.178-.2.264a2.112,2.112,0,0,0-.383.869,4.357,4.357,0,0,0-.08,1.355,9.6,9.6,0,0,0,.265,1.395,4.081,4.081,0,0,1,.075.407c.025.185-.051.245-.228.19a.668.668,0,0,1-.343-.267,1.744,1.744,0,0,1-.267-.642,4.394,4.394,0,0,1-.09-1.243,4.224,4.224,0,0,1,.169-1.012,3.9,3.9,0,0,1,.564-1.068,5.543,5.543,0,0,1,.98-1.035l.077-.068a.846.846,0,0,0,.292-.875,1.477,1.477,0,0,1-.027-.288.21.21,0,0,1,.4-.085.848.848,0,0,1,.054.25,1.609,1.609,0,0,1-.015.241C570.155,629.989,570.154,630.007,570.152,630.03Z" transform="translate(-563.294 -628.948)" fill="#c34687"/>
    </g>
  </g>
</svg>
