<?xml version="1.0" encoding="utf-8"?>
<!-- Generator: Adobe Illustrator 23.0.1, SVG Export Plug-In . SVG Version: 6.00 Build 0)  -->
<svg version="1.1" id="Calque_1" xmlns="http://www.w3.org/2000/svg" xmlns:xlink="http://www.w3.org/1999/xlink" x="0px" y="0px"
	 viewBox="0 0 145 65" style="enable-background:new 0 0 145 65;" xml:space="preserve">
<style type="text/css">
	.st0{fill:#144486;}
	.st1{fill:#D54414;}
	.st2{fill:#278BBF;}
</style>
<path class="st0" d="M54.6,33.9c0,2.6-0.4,5.1-1.2,7.5c-0.7,2-1.9,3.9-3.4,5.4c-1.4,1.4-3.1,2.6-5,3.3c-3.9,1.5-8.1,1.5-12,0
	c-1.9-0.7-3.6-1.8-5-3.3c-1.5-1.6-2.6-3.4-3.4-5.4c-0.9-2.4-1.3-5-1.2-7.5c0-2.6,0.4-5.1,1.2-7.5c0.7-2,1.9-3.9,3.4-5.4
	c1.4-1.4,3.1-2.6,5-3.3c3.9-1.5,8.1-1.5,12,0c1.9,0.7,3.6,1.8,5,3.3c1.5,1.6,2.6,3.4,3.4,5.4C54.3,28.8,54.7,31.3,54.6,33.9z
	 M51.2,33.9c0-2-0.3-4.1-0.9-6c-0.5-1.7-1.3-3.2-2.4-4.5c-1-1.2-2.3-2.2-3.8-2.9c-3.2-1.3-6.8-1.3-10,0c-1.5,0.6-2.8,1.6-3.8,2.9
	c-1.1,1.3-1.9,2.9-2.4,4.5c-0.6,2-0.9,4-0.9,6c0,2,0.3,4.1,0.9,6c0.5,1.7,1.3,3.2,2.4,4.5c1,1.2,2.3,2.2,3.8,2.9
	c3.2,1.3,6.8,1.3,10,0c1.5-0.7,2.8-1.6,3.8-2.9c1.1-1.3,1.9-2.9,2.4-4.5C50.9,38,51.2,35.9,51.2,33.9z"/>
<path class="st1" d="M82.6,34.8h3.3v14.8c-1.2,0.4-2.4,0.7-3.6,1c-2.2,0.4-4.4,0.6-6.6,0.6c-2.1,0-4.1-0.4-6-1.2
	c-1.8-0.7-3.5-1.9-4.8-3.3c-1.4-1.6-2.5-3.4-3.2-5.4c-0.8-2.4-1.2-4.9-1.2-7.4c0-2.5,0.4-5,1.2-7.4c0.7-2,1.9-3.9,3.4-5.4
	c1.4-1.4,3.1-2.6,5-3.3c1.9-0.8,4-1.2,6-1.2c2.1-0.1,4.1,0.2,6.1,0.8c1.2,0.4,2.4,0.9,3.5,1.5l-1.1,2.8c-1.1-0.7-2.3-1.3-3.6-1.6
	c-1.6-0.4-3.3-0.6-5-0.6c-1.6,0-3.2,0.3-4.7,0.9c-1.5,0.6-2.8,1.5-3.8,2.7c-1.1,1.3-2,2.9-2.6,4.5c-0.7,2-1,4.1-0.9,6.2
	c0,2,0.2,4,0.8,6c0.5,1.7,1.2,3.2,2.3,4.6c1,1.3,2.4,2.3,3.9,2.9c1.7,0.7,3.5,1,5.3,1c1.4,0,2.7-0.1,4.1-0.3
	c0.8-0.1,1.5-0.3,2.2-0.5L82.6,34.8z"/>
<path class="st0" d="M123.4,33.9c0,2.6-0.4,5.1-1.2,7.5c-0.7,2-1.9,3.9-3.4,5.4c-1.4,1.4-3.1,2.6-5,3.3c-3.9,1.5-8.1,1.5-12,0
	c-1.9-0.7-3.6-1.8-5-3.3c-1.5-1.6-2.6-3.4-3.4-5.4c-0.9-2.4-1.3-5-1.2-7.5c0-2.6,0.4-5.1,1.2-7.5c0.7-2,1.9-3.9,3.4-5.4
	c1.4-1.4,3.1-2.6,5-3.3c3.9-1.5,8.1-1.5,12,0c1.9,0.7,3.6,1.8,5,3.3c1.5,1.6,2.6,3.4,3.4,5.4C123,28.8,123.4,31.3,123.4,33.9z
	 M119.9,33.9c0-2-0.3-4.1-0.9-6c-0.5-1.7-1.3-3.2-2.4-4.5c-1-1.2-2.3-2.2-3.8-2.9c-3.2-1.3-6.8-1.3-10,0c-1.5,0.6-2.8,1.6-3.8,2.9
	c-1.1,1.3-1.9,2.9-2.4,4.5c-0.6,2-0.9,4-0.9,6c0,2,0.3,4.1,0.9,6c0.5,1.7,1.3,3.2,2.4,4.5c1,1.2,2.3,2.2,3.8,2.9
	c3.2,1.3,6.8,1.3,10,0c1.5-0.7,2.8-1.6,3.8-2.9c1.1-1.3,1.9-2.9,2.4-4.5C119.6,38,119.9,35.9,119.9,33.9z"/>
<polyline class="st2" points="0,65 0,65 145,65 145,61 4,61 4,0 0,0 "/>
</svg>
