<?xml version="1.0" encoding="utf-8"?>
<!-- Generator: Adobe Illustrator 23.0.1, SVG Export Plug-In . SVG Version: 6.00 Build 0)  -->
<svg version="1.1" id="Calque_1" xmlns="http://www.w3.org/2000/svg" xmlns:xlink="http://www.w3.org/1999/xlink" x="0px" y="0px"
	 viewBox="0 0 600 225" style="enable-background:new 0 0 600 225;" xml:space="preserve">
<style type="text/css">
	.st0{fill:#4D4D4D;}
	.st1{fill:#C34687;}
	.st2{fill:#FFFFFF;}
</style>
<g>
	<g>
		<path class="st0" d="M104.2,158.4V86.5h23.5c7.8,0,13.7,1.6,17.6,4.8c3.9,3.2,5.9,8,5.9,14.3c0,3.4-1,6.3-2.9,8.9
			c-1.9,2.6-4.5,4.6-7.8,6c3.9,1.1,7,3.2,9.2,6.2c2.3,3,3.4,6.7,3.4,10.9c0,6.5-2.1,11.5-6.3,15.2c-4.2,3.7-10.1,5.5-17.7,5.5H104.2
			z M113.7,117.2H128c4.1,0,7.5-1,9.9-3.1c2.5-2.1,3.7-4.9,3.7-8.5c0-4-1.2-6.8-3.5-8.6c-2.3-1.8-5.8-2.7-10.5-2.7h-14V117.2z
			 M113.7,124.8v25.9h15.7c4.4,0,7.9-1.1,10.4-3.4s3.8-5.4,3.8-9.5c0-8.7-4.7-13-14.1-13H113.7z"/>
		<path class="st0" d="M186.5,113.2c-1.4-0.2-2.9-0.3-4.5-0.3c-6,0-10.1,2.6-12.2,7.7v37.9h-9.1V105h8.9l0.1,6.2
			c3-4.8,7.2-7.2,12.7-7.2c1.8,0,3.1,0.2,4,0.7V113.2z"/>
		<path class="st0" d="M211.1,159.4c-7.2,0-13.1-2.4-17.7-7.1c-4.5-4.8-6.8-11.1-6.8-19.1v-1.7c0-5.3,1-10,3-14.2
			c2-4.2,4.9-7.4,8.5-9.8c3.6-2.4,7.6-3.5,11.8-3.5c6.9,0,12.3,2.3,16.2,6.9c3.9,4.6,5.8,11.1,5.8,19.7v3.8h-36.2
			c0.1,5.3,1.7,9.5,4.6,12.8c2.9,3.2,6.7,4.9,11.2,4.9c3.2,0,6-0.7,8.2-2c2.2-1.3,4.2-3.1,5.9-5.2l5.6,4.3
			C226.8,155.9,220,159.4,211.1,159.4z M209.9,111.5c-3.7,0-6.8,1.3-9.3,4c-2.5,2.7-4,6.4-4.6,11.3h26.8v-0.7
			c-0.3-4.6-1.5-8.2-3.8-10.8C216.8,112.8,213.8,111.5,209.9,111.5z"/>
		<path class="st0" d="M237.5,90.8c0-1.5,0.5-2.7,1.4-3.8c0.9-1,2.2-1.5,4-1.5s3.1,0.5,4,1.5c0.9,1,1.4,2.3,1.4,3.8
			c0,1.5-0.5,2.7-1.4,3.7c-0.9,1-2.3,1.5-4,1.5s-3.1-0.5-4-1.5C237.9,93.5,237.5,92.3,237.5,90.8z M247.4,158.4h-9.1V105h9.1V158.4z
			"/>
		<path class="st0" d="M265.5,150.9h31.3v7.5h-42.4v-6.7l29.5-39.2h-29V105h40.5v6.5L265.5,150.9z"/>
		<path class="st0" d="M311.1,111.4c4-5,9.3-7.5,15.8-7.5c11.3,0,17,6.4,17.1,19.1v35.3h-9.1V123c0-3.9-0.9-6.7-2.6-8.5
			c-1.7-1.8-4.4-2.8-8.1-2.8c-3,0-5.6,0.8-7.8,2.4s-4,3.7-5.2,6.2v38.1H302V82.5h9.1V111.4z"/>
	</g>
	<g>
		<path class="st1" d="M373.5,141.6c5.8,4.6,15.5,12.1,24.9,12.1c4,0,7-1,8.9-2.6c2.4-2.7,1.7-5.8-0.3-7.5
			c-7.6-6.5-30.3-15.4-30.3-30.2c0-19.7,22.3-36.5,35.1-42c6.9-2.9,13.8-4,18.5,0.3c3.6,3.3,6.2,8.1,7.2,12.1
			c1.4,5.8-2,11.4-4.2,14.4c-3.7,5-7.9,12.4-9.9,16c-0.7,1.3-1.6,2-3.2,0.4c-2.7-2.7-4.5-7.2-1.4-13.9c3-6.9,13.8-18.8,10.4-22.4
			c-4.9-5-40.3,17-41,34.9c-0.4,9.3,18,17,26,22.7c5.5,3.9,4.7,10.5-1.6,17.8c-8.6,9.9-33.6,12.7-53.9-11.8c-1.6-1.9-1-2.9,0.3-3.3
			C363.7,137.2,369.6,138.5,373.5,141.6z"/>
		<path class="st1" d="M512.4,160c-11.2-0.3-15.5-10.2-11.9-21.7c3-9.6,11.9-20.4,18-27.3c-6.3,4-12.5,5.5-17.3,5.5
			c-7.5,19-19.7,42-35.2,43.3c-8.6,0.7-12.8-5.2-12.1-13.4c-5,6.8-12.2,13.8-20.1,13.2c-10.4-0.7-10.5-11.4-7.3-20.7
			c3.2-9.5,10.2-23.4,19.8-36.4c1.2-1.4,2.3-1.6,3.3-0.1c3.5,4.7,2.7,10.6-2.4,19.3c-5,8.5-8.6,14.2-11.4,21
			c-2.9,7-2.4,12.1,0.7,12.4c5.6,0.4,13.7-9.5,21.3-21.9c9.1-14.8,13.1-24.4,17.7-30.6c1.3-1.7,2.3-2,3.5-0.9
			c2.2,2.3,3.3,8.6-0.1,15.8c-3,6.5-10.4,17.3-13.5,24.6c-3.6,8.2-2.9,13.8,1.6,13.4c9.2-0.9,21.1-19.3,28.8-39.7
			c-11.5-4.3,2-23.7,7.9-24.2c4.6-0.3,3.5,8.6,0.3,18.1c5-0.7,10.2-3,15.8-6.8c1.7-1.4,3.2-1.9,4.3-0.4c2.6,3.2,6.2,9.8,1.9,14.7
			c-6.8,7.6-13.7,17.5-16.2,24.9c-2.7,7.9-1,13.7,3.6,13.9c5.8,0.3,13.1-9.1,17.7-19.8c0.6-1.3,1.6-1.3,2.2,0c0.7,1.6,1,5-0.7,9.3
			C528.6,154.1,520,160.2,512.4,160z"/>
		<path class="st1" d="M551.8,148.1c0,1.6-0.1,3.2-0.3,4.9c5.5-3.6,11.2-10.8,15-18.3c0.9-1.7,2.3-1.9,3,0.1
			c0.7,2.2-0.1,5.3-1.4,8.6c-1.4,3.5-8.6,11.9-17.3,15c-2.3,14.5-8.6,30.5-15.5,39.1c-4.9,6-8.5,6.6-12.8,2.9
			c-3.6-3-7.9-8.6-6.3-20.9c4-32.1,37.1-87.1,53.1-111c1.2-1.7,3-1.6,3.6,0.1c1.7,4.9,1.3,11.1-4.9,21.6c-5.9,9.8-15.8,26-23.6,41.1
			C549.8,133.2,551.9,138.6,551.8,148.1z M524,194.8c3.2,4.2,13.9-15.7,18.7-35.4c-4.2-0.4-7-2.3-8.8-5.8
			C525.9,172.8,520.7,190.7,524,194.8z M544.9,144.9c0.1-5.3-1.3-9.8-2.3-9.3c-1.4,0.6-2.7,8.2-2.9,11.5c-0.1,4.6,1.2,7.6,3.9,8.2
			C544.3,151.8,544.8,148.3,544.9,144.9z"/>
	</g>
	<g>
		<path class="st1" d="M52,22.2C33.5,39.3,26.3,67.9,26.3,90.1s7.1,72.1,25.7,72.1s25.7-50,25.7-72.1S70.6,39.3,52,22.2z"/>
		<g>
			<path class="st2" d="M49.5,75.6c-0.2-0.1-0.3-0.2-0.5-0.3c-0.6-0.4-1.2-0.8-1.8-1.1c-0.8-0.5-1.7-0.8-2.6-1
				c-0.6-0.1-1.3-0.1-1.9,0c-0.6,0.1-1.2,0.2-1.7,0.2c-1.5,0.1-2.6-0.4-3.4-1.6c-0.4-0.6-0.7-1.3-0.8-2c-0.1-1.1,0.3-2,1-2.8
				c0.6-0.6,1.2-1.1,2-1.4c0.2-0.1,0.2-0.2,0.3-0.4c0-0.5,0.1-1.1,0.2-1.6c0.2-0.9,0.5-1.8,1.2-2.4c0.6-0.6,1.4-0.9,2.3-1.1
				c0.9-0.1,1.6,0.2,2.3,0.6c0.2,0.2,0.5,0.3,0.7,0.5c0.4,0.2,0.5,0.2,0.8-0.1c1.1-1.1,2.8-1.2,4-0.2c0.2,0.2,0.3,0.4,0.4,0.6
				c0.2,0.3,0.1,0.5-0.2,0.7c-0.2,0.1-0.4,0.3-0.6,0.4c-0.7,0.6-1.2,1.3-1.5,2.2c-0.3,0.6-0.4,1.3-0.7,2c-0.1,0.3-0.2,0.3-0.4,0.2
				c-0.2-0.1-0.4-0.2-0.6-0.3c-0.7-0.3-1.2-0.1-1.4,0.6c0,0,0,0.1,0,0.1c0,0.1-0.1,0.2-0.2,0.1c-0.2-0.1-0.4-0.2-0.6-0.3
				c-0.4-0.2-0.8-0.3-1.2-0.4c-0.7-0.1-1.3,0.2-1.7,0.8c-0.2,0.2-0.3,0.5-0.4,0.8c-0.1,0.4,0.1,0.8,0.4,1c0.4,0.3,0.7,0.7,1.2,0.9
				c0.8,0.5,1.6,1,2.4,1.4c0.8,0.5,1.6,1,2.2,1.7c0.4,0.5,0.8,1,0.9,1.6C49.5,75.2,49.5,75.4,49.5,75.6
				C49.5,75.6,49.5,75.6,49.5,75.6z"/>
			<path class="st2" d="M43.7,83.5c1,0.1,1.7-0.4,2.3-1.1c0.1-0.1,0.2-0.2,0.3-0.3c0,0,0.1-0.1,0.1-0.1c0,0,0.1-0.1,0.2,0
				c0,0,0.1,0.1,0.1,0.1c0,0.2-0.1,0.4-0.1,0.5c-0.2,1-0.2,1.9,0,2.9c0.1,0.5,0.3,0.9,0.6,1.3c0.2,0.4,0.2,0.4-0.2,0.7
				c-0.9,0.5-1.7,0.9-2.7,1c-1.5,0.2-2.7-0.3-3.7-1.5c-0.4-0.6-0.7-1.2-1-1.9c-0.1-0.3-0.3-0.5-0.5-0.6c-0.5-0.3-1.1-0.5-1.5-0.9
				c-0.8-0.5-1.3-1.3-1.4-2.3c-0.1-0.5,0-1,0.1-1.5c0.2-1,0.7-1.9,1.2-2.8c0.4-0.6,0.9-0.9,1.5-1.2c0.8-0.4,1.7-0.7,2.6-0.9
				c0.7-0.2,1.5-0.3,2.2-0.4c0.7-0.1,1.4,0,2.1,0.2c1.3,0.4,2.5,1,3.6,1.9c0.2,0.2,0.4,0.4,0.5,0.6c0.1,0.2,0.1,0.3-0.2,0.3
				c-0.1,0-0.2,0.1-0.3,0.2c-0.3,0.4-0.5,0.5-1,0.4c-2-0.4-3.8,0-5.3,1.2c-0.7,0.5-1.1,1.3-1.3,2.1c-0.1,0.5,0,1,0.2,1.5
				c0.1,0.4,0.4,0.5,0.8,0.5C43.2,83.5,43.4,83.5,43.7,83.5z"/>
			<path class="st2" d="M51.8,77.3c0,0.2-0.1,0.3-0.1,0.4c-0.1,0.5-0.3,1-0.4,1.5c-0.2,1.1,0,2,0.8,2.8c0.5,0.5,1.2,0.7,1.9,0.4
				c1.1-0.4,1.6-1.3,1.3-2.6c-0.1-0.7-0.5-1.2-0.9-1.8c-0.1-0.2-0.3-0.4-0.4-0.6c0,0-0.1-0.1-0.1-0.2c0.1,0,0.2,0.1,0.3,0.1
				c0.5,0.2,1.1,0.4,1.6,0.6c0.6,0.3,1.1,0.6,1.6,1.1c1,1.2,1.9,2.6,2.4,4.1c0.2,0.8,0.4,1.6,0.4,2.4c0,0.2,0,0.3,0,0.5
				c0,0.2-0.1,0.4-0.2,0.5c-0.1,0.1-0.2,0.3-0.3,0.5c-0.2,0.4-0.4,0.7-0.8,1c-0.4,0.3-0.8,0.6-1.3,0.8C57,89.1,56.5,89.1,56,89
				c0,0,0,0,0,0c-0.6-0.2-1.2-0.1-1.7,0.2c-0.3,0.2-0.6,0.3-0.9,0.5c-0.9,0.4-1.7,0.3-2.4-0.3c-0.3-0.2-0.5-0.6-0.7-1
				c-0.1-0.4-0.2-0.7-0.3-1.1c-0.1-0.2-0.1-0.4-0.3-0.5c-0.2-0.2-0.4-0.4-0.6-0.6c-0.6-0.5-0.9-1.1-1.1-1.9
				c-0.2-0.9-0.2-1.9-0.1-2.8c0.3-1.8,1.4-3.1,3.1-3.9c0.2-0.1,0.4-0.2,0.7-0.3C51.6,77.3,51.7,77.3,51.8,77.3z"/>
			<path class="st2" d="M54,76c0.1-0.1,0.2-0.1,0.3-0.2c0.6-0.3,1.2-0.5,1.8-0.5c1.5-0.2,2.9,0.2,4.2,1.1c0.7,0.5,1.4,1,2.2,1.4
				c0.4,0.3,0.9,0.5,1.4,0.6c0.6,0.1,1.1-0.2,1.5-0.6c0.2-0.2,0.2-0.5,0.1-0.8c-0.1-1-0.7-1.6-1.5-2.1c-0.8-0.6-1.8-0.8-2.7-0.9
				c-1.1-0.1-2.2,0-3.4,0.1c-0.1,0-0.3,0-0.4,0c0,0-0.1,0-0.1,0c0.1-0.1,0.1-0.2,0.2-0.2c0.2-0.2,0.5-0.3,0.8-0.4
				c0.9-0.4,1.9-0.6,2.9-0.7c0.9-0.1,1.8-0.1,2.7,0.1c1.2,0.2,2.3,0.7,3,1.7c0.5,0.7,1,1.5,1.4,2.3c0.1,0.2,0.1,0.4,0.2,0.5
				c0.1,0.4,0.1,0.7-0.2,1c-0.4,0.5-0.4,1-0.3,1.6c0.1,0.5,0.3,1,0.3,1.5c0.1,1.3-0.4,2.3-1.4,3.1c-0.5,0.5-1.1,0.8-1.8,1.1
				c-0.3,0.1-0.7,0.1-1,0c-0.8-0.2-1.4-0.7-1.9-1.2c-0.9-0.9-1.5-1.9-2.1-2.9c-0.5-0.9-0.9-1.7-1.5-2.5c-1.1-1.4-2.5-2.3-4.2-2.7
				C54.2,76.1,54.1,76.1,54,76C54,76,54,76,54,76z"/>
			<path class="st2" d="M52.6,69.1c-0.1-0.1-0.1-0.3-0.2-0.4c-0.1-0.5-0.1-1.1,0-1.6c0.1-1,0.5-2,1-2.9c0.7-1.3,1.8-2,3.3-2.3
				c0.4-0.1,0.8-0.1,1.2-0.1c0.3,0,0.5,0.1,0.8,0.3c0.6,0.4,0.9,1,1,1.7c0,0.3,0.1,0.3,0.4,0.4c0.7,0.2,1.4,0.3,2.1,0.5
				c0.5,0.1,0.9,0.3,1.2,0.6c0.6,0.5,1,1.2,1.1,2c0.1,1.2-0.2,2.2-1.1,3.1c-0.3,0.3-0.6,0.4-0.9,0.5c-1,0.3-2.1,0.6-3.1,0.9
				c-1,0.3-2,0.6-2.9,1c-0.9,0.4-1.7,0.9-2.4,1.7c-0.1,0.1-0.1,0.1-0.2,0.2c0-0.1,0-0.2,0-0.3c0-0.5,0.2-1,0.4-1.4
				c0.7-1.4,1.6-2.4,2.9-3.2c0.5-0.3,1-0.6,1.5-1c0.5-0.4,0.7-0.9,0.7-1.5c0-0.3-0.1-0.4-0.4-0.5c-0.1,0-0.3-0.1-0.4-0.1
				c-0.3,0-0.5,0-0.8,0.1c-0.3,0-0.5,0.2-0.7,0.4c-0.1,0.1-0.1,0.1-0.2,0c-0.1-0.1-0.2-0.2-0.4-0.2c-0.7-0.4-1.4-0.4-2,0
				c-0.7,0.4-1.3,0.9-1.6,1.7C52.8,68.8,52.7,69,52.6,69.1C52.7,69.1,52.6,69.1,52.6,69.1z"/>
			<path class="st2" d="M57.9,56.6c0.1,0,0.1,0,0.1,0c0.4-0.3,0.7-0.6,0.7-1.1c0-0.4,0-0.7,0-1.1c0-0.2,0-0.3,0.1-0.5
				c0.2-0.6,0.7-0.7,1.1-0.7c0.4,0,0.5,0.3,0.5,0.7c0,0.3-0.1,0.5-0.3,0.7c-0.2,0.2-0.3,0.5-0.4,0.8c0,0.2,0,0.2,0.2,0.2
				c0.2,0,0.4-0.2,0.6-0.4c0.2-0.3,0.3-0.5,0.5-0.8c0.1-0.2,0.3-0.4,0.5-0.6c0.3-0.3,0.7-0.4,1.1-0.3c0.2,0.1,0.3,0.2,0.3,0.4
				c0.1,0.5-0.2,0.9-0.6,1c-0.5,0.2-1,0.4-1.6,0.6c-0.1,0.1-0.3,0.1-0.4,0.2c-0.1,0.1-0.1,0.2-0.1,0.3c0,0.1,0.1,0.1,0.2,0.2
				c0.2,0,0.3,0,0.5,0.1c0.6,0.1,1.1,0.3,1.6,0.6c0.1,0.1,0.3,0.2,0.4,0.3c0.1,0.2,0.1,0.4,0,0.5c-0.3,0.3-0.8,0.5-1.2,0.2
				c-0.3-0.2-0.5-0.4-0.8-0.6c-0.3-0.3-0.7-0.6-1.1-0.6c-0.5-0.1-0.9,0.1-1.3,0.4c-0.2,0.2-0.2,0.3,0.1,0.4c0.3,0.1,0.6,0.1,0.9,0.2
				c0.4,0.1,0.7,0.2,0.9,0.5c0.3,0.4,0.1,0.9-0.3,1c-0.2,0.1-0.4,0-0.5-0.1c-0.2-0.1-0.3-0.3-0.5-0.4c-0.2-0.1-0.3-0.3-0.5-0.4
				c-0.2-0.2-0.4-0.2-0.7-0.1c-0.6,0.2-1.1,0.5-1.5,0.9c-0.9,0.7-1.7,1.6-2.4,2.6c-0.2,0.3-0.4,0.6-0.6,0.8c-0.6,0.8-1,1.8-1.2,2.8
				c-0.3,1.4-0.4,2.9-0.3,4.3c0.1,1.5,0.5,3,0.8,4.4c0.1,0.4,0.2,0.9,0.2,1.3c0.1,0.6-0.2,0.8-0.7,0.6c-0.5-0.1-0.8-0.5-1.1-0.8
				c-0.4-0.6-0.7-1.3-0.9-2c-0.3-1.3-0.4-2.6-0.3-4c0.1-1.1,0.2-2.2,0.5-3.2c0.4-1.2,1.1-2.3,1.8-3.4c0.9-1.3,2-2.3,3.1-3.3
				c0.1-0.1,0.2-0.1,0.2-0.2c0.9-0.7,1.2-1.7,0.9-2.8c-0.1-0.3-0.1-0.6-0.1-0.9c0-0.3,0.2-0.6,0.5-0.6c0.4-0.1,0.6,0,0.8,0.4
				c0.1,0.2,0.2,0.5,0.2,0.8c0,0.3,0,0.5,0,0.8C57.9,56.5,57.9,56.5,57.9,56.6z"/>
		</g>
	</g>
</g>
</svg>
